<?xml version="1.0" encoding="iso-8859-1"?>
<!-- Uploaded to: SVG Repo, www.svgrepo.com, Generator: SVG Repo Mixer Tools -->
<!DOCTYPE svg PUBLIC "-//W3C//DTD SVG 1.1//EN" "http://www.w3.org/Graphics/SVG/1.1/DTD/svg11.dtd">
<svg version="1.1" id="Capa_1" xmlns="http://www.w3.org/2000/svg" xmlns:xlink="http://www.w3.org/1999/xlink" 
	 width="800px" height="800px" viewBox="0 0 53.326 53.326"
	 xml:space="preserve">
<g>
	<g>
		<path d="M15.13,10.914c3.236,0,5.681-2.346,5.681-5.457C20.812,2.346,18.371,0,15.13,0c-0.649,0-1.18,0.257-1.18,0.574v9.765
			C13.951,10.658,14.48,10.914,15.13,10.914z"/>
		<path d="M23.082,8.997h7.273c0.924,0,1.672-0.749,1.672-1.672V3.59c0-0.923-0.748-1.672-1.672-1.672h-7.273
			c-0.924,0-1.672,0.749-1.672,1.672v3.735C21.41,8.248,22.16,8.997,23.082,8.997z M23.807,3.393h5.824
			c0.324,0,0.59,0.265,0.59,0.59c0,0.326-0.266,0.591-0.59,0.591h-5.824c-0.324,0-0.59-0.265-0.59-0.591
			C23.216,3.658,23.482,3.393,23.807,3.393z"/>
		<path d="M13.443,7.005V3.908c-0.855,0-1.549,0.692-1.549,1.548C11.895,6.311,12.587,7.005,13.443,7.005z"/>
		<path d="M39.789,52.222c0.039-0.282-0.019-0.582-0.19-0.834l-4.859-7.082c0.121,0.072,0.275,0.074,0.4-0.012
			c0.166-0.117,0.209-0.347,0.092-0.515l-1.685-2.422c-0.116-0.168-0.346-0.209-0.515-0.092c-0.11,0.078-0.161,0.207-0.149,0.334
			l-4.981-7.26v-3.166c0.644-0.297,1.093-0.943,1.093-1.697s-0.449-1.4-1.093-1.697V10.914c0-0.651-0.527-1.181-1.183-1.181
			c-0.649,0-1.18,0.528-1.18,1.181v16.865c-0.643,0.297-1.092,0.943-1.092,1.697s0.449,1.4,1.092,1.697v3.166l-4.998,7.283
			c0.021-0.135-0.031-0.275-0.15-0.357c-0.168-0.117-0.396-0.076-0.512,0.092l-1.686,2.422c-0.115,0.168-0.074,0.396,0.094,0.515
			c0.137,0.096,0.311,0.08,0.436-0.021l-4.881,7.111c-0.174,0.254-0.229,0.553-0.188,0.834c-0.965,0.092-1.64,0.293-1.64,0.525
			c0,0.32,1.255,0.58,2.804,0.58c1.547,0,2.801-0.26,2.801-0.58c0-0.223-0.609-0.412-1.496-0.51l9.42-13.728v10.279
			c0,0.137,0.027,0.266,0.07,0.389c-0.996,0.09-1.693,0.293-1.693,0.533c0,0.319,1.256,0.58,2.804,0.58
			c1.549,0,2.803-0.261,2.803-0.58c0-0.24-0.696-0.443-1.693-0.533c0.043-0.123,0.072-0.252,0.072-0.389V38.509l9.418,13.728
			c-0.887,0.098-1.495,0.287-1.495,0.51c0,0.32,1.254,0.58,2.803,0.58c1.547,0,2.801-0.26,2.801-0.58
			C41.426,52.513,40.752,52.311,39.789,52.222z"/>
	</g>
</g>
</svg>