<?xml version="1.0" encoding="iso-8859-1"?>
<!-- Uploaded to: SVG Repo, www.svgrepo.com, Generator: SVG Repo Mixer Tools -->
<svg height="800px" width="800px" version="1.1" id="Layer_1" xmlns="http://www.w3.org/2000/svg" xmlns:xlink="http://www.w3.org/1999/xlink" 
	 viewBox="0 0 512 512" xml:space="preserve">
<g>
	<g>
		<g>
			<path d="M438.811,265.369h-47.722c-4.45,0-8.056,3.607-8.056,8.056v24.289c0,4.449,3.606,8.056,8.056,8.056h47.722
				c4.45,0,8.056-3.607,8.056-8.056v-24.289C446.867,268.975,443.26,265.369,438.811,265.369z M430.756,289.659h-31.611v-8.178
				h31.611V289.659z"/>
			<path d="M482.139,203.896h-66.281l29.569-110.588c0.648-2.419,0.132-5.001-1.392-6.987c-1.525-1.986-3.886-3.15-6.39-3.15
				H237.859c-3.648,0-6.84,2.451-7.782,5.975l-3.776,14.121h-8.238c-3.646,0-6.84,2.451-7.782,5.974l-25.319,94.655H49.642
				c-16.467,0-29.864,13.397-29.864,29.864v146.773C8.529,382.686,0,392.594,0,404.461c0,13.437,10.931,24.368,24.365,24.368
				h457.772c16.466,0,29.863-13.397,29.863-29.863V233.76C512,217.293,498.604,203.896,482.139,203.896z M244.044,99.283h183.108
				L399.18,203.896h-4.868l24.206-90.492c0.648-2.419,0.133-5.001-1.392-6.987c-1.525-1.986-3.886-3.15-6.39-3.15H242.978
				L244.044,99.283z M224.248,119.378h175.996l-22.609,84.518H201.638L224.248,119.378z M104.407,220.007h143.287v39.299H104.407
				V220.007z M24.365,412.718c-4.552,0-8.254-3.703-8.254-8.256c0-4.553,3.702-8.256,8.254-8.256h92.767
				c-0.931,2.58-1.443,5.36-1.443,8.256c0.001,2.897,0.512,5.676,1.444,8.256H24.365z M247.694,412.718H140.057
				c-4.552,0-8.256-3.703-8.256-8.256c0-4.553,3.703-8.256,8.256-8.256h107.636V412.718z M247.694,380.094H104.407v-39.3h143.287
				V380.094z M321.267,412.718h-57.462v-79.98c0-4.449-3.606-8.056-8.056-8.056H96.351c-4.45,0-8.056,3.607-8.056,8.056v47.355
				H35.889V233.76c0-7.583,6.169-13.752,13.752-13.752h38.654v47.355c0,4.449,3.606,8.056,8.056,8.056h159.398
				c4.45,0,8.056-3.607,8.056-8.056v-47.355h57.462c-2.147,4.119-3.368,8.795-3.368,13.752v165.207
				C317.9,403.923,319.12,408.599,321.267,412.718z M495.889,398.966L495.889,398.966c0,7.582-6.168,13.751-13.751,13.751H347.761
				c-7.583,0-13.751-6.169-13.751-13.751V233.76c0-7.583,6.168-13.752,13.751-13.752h134.377c7.583,0,13.751,6.169,13.751,13.752
				V398.966z"/>
			<circle cx="288.569" cy="264.267" r="7.798"/>
			<circle cx="288.569" cy="294.271" r="7.798"/>
		</g>
	</g>
</g>
</svg>