<?xml version="1.0" encoding="iso-8859-1"?>
<!-- Uploaded to: SVG Repo, www.svgrepo.com, Generator: SVG Repo Mixer Tools -->
<svg height="800px" width="800px" version="1.1" id="Capa_1" xmlns="http://www.w3.org/2000/svg" xmlns:xlink="http://www.w3.org/1999/xlink" 
	 viewBox="0 0 331.364 331.364" xml:space="preserve">
<g>
	<g>
		<path d="M106.479,9.034v82.044H0V322.33h224.885v-82.044h106.479V9.034H106.479z M195.051,240.286v16.373
			H29.834v-135.71h76.644v119.337H195.051z M212.952,310.397H11.934V103.012h94.545v6.003H17.901v159.578h189.084v-28.307h5.967
			V310.397z M319.43,228.352h-94.545h-11.934h-5.967h-11.934h-76.638V120.948v-11.934v-6.003V91.078V20.968H319.43V228.352z"/>
		<path d="M206.985,186.548h5.967h11.934h88.578V26.97h-189.09v64.108v11.934v6.003v11.934v65.6h70.678
			H206.985z M136.307,120.948v-11.934v-6.003V91.078V38.904h165.217v135.71h-76.638h-11.934h-5.967h-11.934h-58.744V120.948z"/>
	</g>
</g>
</svg>